<?xml version="1.0" standalone="no"?>
<!DOCTYPE svg PUBLIC "-//W3C//DTD SVG 20010904//EN"
 "http://www.w3.org/TR/2001/REC-SVG-20010904/DTD/svg10.dtd">
<svg version="1.0" xmlns="http://www.w3.org/2000/svg"
 width="225.000000pt" height="225.000000pt" viewBox="0 0 225.000000 225.000000"
 preserveAspectRatio="xMidYMid meet">
<metadata>
Created by potrace 1.16, written by Peter Selinger 2001-2019
</metadata>
<g transform="translate(0.000000,225.000000) scale(0.100000,-0.100000)"
fill="#000000" stroke="none">
<path d="M957 2190 c21 -229 -128 -581 -386 -908 l-49 -63 -7 68 c-9 92 -30
184 -57 245 l-22 51 -22 -91 c-15 -62 -51 -152 -110 -274 -98 -207 -119 -262
-140 -366 -30 -156 -12 -300 53 -426 64 -122 280 -318 442 -401 33 -16 34 -16
26 1 -52 126 -59 159 -60 279 0 141 12 179 101 322 72 117 120 215 154 316
l27 82 20 -40 c32 -61 44 -119 44 -203 l0 -77 25 30 c38 46 110 201 130 280
10 39 20 124 23 189 l6 119 78 -73 c206 -192 317 -422 347 -714 16 -162 -16
-372 -77 -489 -8 -16 -12 -31 -9 -34 9 -9 196 121 274 190 152 135 264 305
309 467 27 97 24 336 -5 443 -63 231 -212 485 -381 651 l-60 59 14 -48 c17
-55 20 -183 5 -236 -11 -39 -49 -100 -65 -106 -5 -1 -23 40 -39 92 -61 199
-174 393 -306 525 -76 76 -185 155 -251 183 l-37 15 5 -58z"/>
</g>
</svg>
