<?xml version="1.0" standalone="no"?>
<!DOCTYPE svg PUBLIC "-//W3C//DTD SVG 20010904//EN"
 "http://www.w3.org/TR/2001/REC-SVG-20010904/DTD/svg10.dtd">
<svg version="1.0" xmlns="http://www.w3.org/2000/svg"
 width="981.000000pt" height="726.000000pt" viewBox="0 0 981.000000 726.000000"
 preserveAspectRatio="xMidYMid meet">
<metadata>
Created by potrace 1.16, written by Peter Selinger 2001-2019
</metadata>
<g transform="translate(0.000000,726.000000) scale(0.100000,-0.100000)"
fill="#000000" stroke="none">
<path d="M125 7241 c-49 -23 -89 -64 -109 -113 -14 -33 -16 -278 -16 -2313 l0
-2275 3378 0 3379 0 6 572 c4 314 7 1339 7 2277 0 1641 -1 1708 -19 1746 -24
53 -55 83 -105 106 -40 18 -141 19 -3261 19 -3113 0 -3221 -1 -3260 -19z"/>
<path d="M7125 5828 c-16 -6 -45 -21 -62 -35 l-33 -24 -2 -1719 -3 -1720 -26
-25 c-14 -15 -43 -30 -65 -35 -23 -6 -852 -10 -1969 -10 l-1930 0 63 -30 c378
-179 584 -535 617 -1067 l7 -113 1489 0 1489 0 0 39 c0 81 43 329 71 416 113
338 386 654 691 798 395 187 918 160 1281 -67 240 -149 443 -406 550 -696 33
-89 62 -238 82 -429 l7 -63 137 4 c147 4 173 12 223 65 59 62 58 50 58 671 l0
569 -24 46 -25 46 -4 883 c-3 607 -8 908 -16 963 -84 575 -318 1048 -697 1416
-143 138 -25 124 -1019 126 -585 1 -870 -2 -890 -9z m1713 -498 c249 -282 417
-639 475 -1012 l14 -88 -968 0 -969 0 0 600 0 600 682 -2 682 -3 84 -95z"/>
<path d="M417 2313 c-12 -12 -8 -1074 4 -1118 15 -55 83 -119 142 -133 28 -7
132 -12 263 -12 l217 0 -6 68 c-34 427 288 962 698 1158 l90 44 -701 0 c-385
0 -704 -3 -707 -7z"/>
<path d="M2180 2135 c-288 -64 -530 -226 -685 -459 -214 -322 -240 -725 -70
-1073 138 -282 391 -487 702 -570 87 -23 117 -26 263 -26 147 0 176 3 265 26
111 30 252 94 345 157 197 134 358 358 424 592 125 438 -40 910 -409 1174 -83
58 -250 137 -350 164 -105 29 -385 37 -485 15z m361 -586 c227 -65 381 -315
340 -548 -36 -201 -179 -355 -376 -406 -273 -70 -554 118 -606 406 -34 193 69
409 242 506 129 73 251 85 400 42z"/>
<path d="M7870 2143 c-203 -34 -410 -135 -567 -278 -137 -124 -259 -329 -309
-520 -24 -88 -27 -120 -27 -260 -1 -179 10 -245 67 -395 86 -229 271 -440 496
-563 161 -88 368 -134 559 -124 512 27 930 402 1011 910 18 110 8 329 -20 432
-110 408 -434 712 -840 789 -76 15 -303 20 -370 9z m325 -595 c126 -41 232
-137 293 -265 33 -71 37 -87 40 -180 4 -83 0 -115 -17 -171 -87 -287 -419
-432 -689 -301 -306 149 -377 551 -139 793 136 138 327 184 512 124z"/>
</g>
</svg>
